<?xml version="1.0" encoding="utf-8"?>
<!-- Generator: Adobe Illustrator 19.1.0, SVG Export Plug-In . SVG Version: 6.00 Build 0)  -->
<svg version="1.1" id="Layer_1" xmlns="http://www.w3.org/2000/svg" xmlns:xlink="http://www.w3.org/1999/xlink" x="0px" y="0px"
	 viewBox="-280 378.9 35 84" style="enable-background:new -280 378.9 35 84;" xml:space="preserve">
<g id="surface1">
	<path class="st0" d="M-245.7,426.8c0,2.3-1.1,3.4-3.2,3.4c-2.1,0-3.2-1.1-3.2-3.4v-22.9h-1.6V459c0,2.3-1.3,3.4-3.9,3.4s-3.9-1.1-3.9-3.4v-32.6
		h-2V459c0,2.3-1.3,3.4-3.9,3.4s-3.9-1.1-3.9-3.4v-55.1h-1.6v22.9c0,2.3-1.1,3.4-3.2,3.4s-3.2-1.2-3.2-3.4v-26.2
		c0-4.2,2.9-6.4,8.7-6.4h16.3c5.8,0,8.7,2.1,8.7,6.4L-245.7,426.8L-245.7,426.8z M-255.8,386.1c0,1.9-0.7,3.6-2,5.1
		c-1.4,1.5-3,2.3-4.9,2.3s-3.5-0.8-4.9-2.3s-2-3.2-2-5.1s0.7-3.5,2-4.8s3-2,4.9-2s3.5,0.7,4.9,2S-255.8,384.2-255.8,386.1z"/>
</g>
</svg>
