<?xml version="1.0" encoding="utf-8"?>
<!-- Generator: Adobe Illustrator 19.1.0, SVG Export Plug-In . SVG Version: 6.00 Build 0)  -->
<svg version="1.1" id="Layer_1" xmlns="http://www.w3.org/2000/svg" xmlns:xlink="http://www.w3.org/1999/xlink" x="0px" y="0px"
	 viewBox="-280 378.9 35 84" style="enable-background:new -280 378.9 35 84;" xml:space="preserve">
<style type="text/css">
	.st0{fill:#FED9A5;}
</style>
<g id="surface1">
	<path class="st0" d="M-245.6,426.9c0,2.3-1.1,3.4-3.2,3.4c-2.1,0-3.2-1.1-3.2-3.4V404h-1.6v55.1c0,2.3-1.3,3.4-3.9,3.4
		s-3.9-1.1-3.9-3.4v-32.6h-2v32.6c0,2.3-1.3,3.4-3.9,3.4s-3.9-1.1-3.9-3.4V404h-1.6v22.9c0,2.3-1.1,3.4-3.2,3.4
		c-2.1,0-3.2-1.2-3.2-3.4v-26.2c0-4.2,2.9-6.4,8.7-6.4h16.3c5.8,0,8.7,2.1,8.7,6.4V426.9z M-255.7,386.2c0,1.9-0.7,3.6-2,5.1
		c-1.4,1.5-3,2.3-4.9,2.3s-3.5-0.8-4.9-2.3c-1.4-1.5-2-3.2-2-5.1c0-1.9,0.7-3.5,2-4.8c1.3-1.3,3-2,4.9-2s3.5,0.7,4.9,2
		C-256.3,382.7-255.7,384.3-255.7,386.2z"/>
</g>
</svg>
